<svg xmlns="http://www.w3.org/2000/svg" width="1494" height="3605" viewBox="0 0 1494 3605">
<defs>
    <g id="plus" fill="#FF9583">
        <path d="M287.787 463.157c0 .11-.09.2-.2.2h-85.6c-.11 0-.2-.09-.2-.2v-444.6c0-.11.09-.2.2-.2h85.6c.11 0 .2.09.2.2v444.6z"/>
        <path d="M302.787 463.157c0 8.395-6.805 15.2-15.2 15.2h-85.6c-8.395 0-15.2-6.805-15.2-15.2v-444.6c0-8.395 6.805-15.2 15.2-15.2h85.6c8.395 0 15.2 6.806 15.2 15.2v444.6zm-86-14.8h56v-415h-56v415z"/>
        <path d="M466.787 284.157c0 .11-.09.2-.2.2h-444.6c-.11 0-.2-.09-.2-.2v-85.6c0-.11.09-.2.2-.2h444.6c.11 0 .2.09.2.2v85.6z"/>
        <path d="M481.787 284.157c0 8.395-6.805 15.2-15.2 15.2h-444.6c-8.395 0-15.2-6.805-15.2-15.2v-85.6c0-8.395 6.805-15.2 15.2-15.2h444.6c8.395 0 15.2 6.806 15.2 15.2v85.6zm-445-14.8h415v-56h-415v56z"/>
        <path d="M961.6 2885.29c.092.092.093.24.003.332l-70.077 71.133c-.09.09-.24.092-.33.002l-369.46-363.98c-.092-.092-.093-.24-.003-.332l70.08-71.133c.09-.09.238-.092.33-.002L961.6 2885.29z" fill="#FFF"/>
    </g>
    <g id="check">
        <path d="M891.36 2974.322c-4.693 0-9.118-1.816-12.457-5.112l-369.448-363.97c-3.313-3.25-5.25-7.813-5.287-12.493-.036-4.68 1.83-9.273 5.12-12.602l70.06-71.114c3.32-3.362 7.92-5.285 12.63-5.285 4.672 0 9.082 1.803 12.417 5.074l369.487 364.007c3.38 3.336 5.25 7.77 5.285 12.503.036 4.743-1.782 9.216-5.118 12.592l-70.06 71.113c-3.327 3.366-7.924 5.287-12.63 5.287zm-345.046-381.895l344.863 339.75 45.845-46.537-344.862-339.75-45.846 46.537z" fill="#FFF"/>
        <path d="M595.416 2959.79c-.09.092-.24.093-.33.003l-71.133-70.077c-.09-.09-.093-.24-.002-.33l363.985-369.46c.09-.092.24-.093.33-.003L959.397 2590c.092.09.093.24.003.33l-363.984 369.46z" fill="#FFF"/>
        <path d="M595.25 2977.358c-4.676 0-9.088-1.805-12.424-5.08l-71.153-70.098c-3.32-3.257-5.257-7.828-5.287-12.518-.03-4.688 1.848-9.285 5.152-12.61l363.93-369.407c3.315-3.362 7.918-5.287 12.632-5.287 4.697 0 9.124 1.817 12.464 5.12l71.113 70.058c6.97 6.882 7.043 18.13.175 25.088L607.88 2972.07c-3.357 3.38-7.942 5.288-12.63 5.288zm-46.72-87.99l46.537 45.845 339.75-344.863-46.535-45.845-339.75 344.862z" fill="#FFF"/>
        <path d="M726.103 452.072c-.06.097-.18.123-.27.06l-69.355-48.726c-.09-.062-.114-.19-.055-.287l237.1-384.51c.06-.095.18-.12.27-.06l69.355 48.727c.09.062.114.19.056.287l-237.1 384.507z" fill="#FF9583"/>
        <path d="M725.94 467.696c-2.894 0-5.7-.898-8.116-2.6l-69.346-48.717c-6.797-4.787-8.678-14.567-4.203-21.81L881.37 10.07c2.743-4.44 7.344-7.085 12.315-7.085 2.872 0 5.66.887 8.065 2.562l69.396 48.754c3.29 2.315 5.535 5.85 6.332 9.955.8 4.125.044 8.335-2.128 11.853L738.257 460.61c-2.744 4.442-7.345 7.086-12.317 7.086zm-49.47-68.838l45.373 31.877 221.314-358.91-45.374-31.876L676.47 398.856z" fill="#FF9583"/>
        <path d="M766.73 390.594c.09.062.115.19.056.286l-45.59 74.072c-.058.096-.18.122-.268.06L514.998 320.61c-.09-.063-.115-.192-.056-.287l45.59-74.073c.058-.096.18-.122.268-.06l205.93 144.404z" fill="#FF9583"/>
        <path d="M721.034 477.988c-2.418 0-4.763-.752-6.782-2.173L508.34 331.427c-5.69-4.006-7.26-12.18-3.52-18.23l45.578-74.052c2.3-3.72 6.144-5.93 10.296-5.93 2.418 0 4.764.75 6.782 2.173l205.913 144.39c5.687 4.004 7.257 12.177 3.52 18.228l-45.58 74.053c-2.3 3.717-6.144 5.927-10.297 5.927zM531.626 316.785l185.987 130.417 32.49-52.784L564.113 264l-32.488 52.785z" fill="#FF9583"/>
    </g>
    <g	id="chef">
        <path d="M1095.425 478.357h274.362V282.73c139-18.608 108.338-232.767-27.393-214.045-62.184-87.59-171.43-87.265-218.233-1.013-130.716-18.72-155.17 197.923-28.776 215.91l.042 194.775z" fill="#DFCA6A"/>
        <path fill="#FFF" d="M1095.787 423.357h274v24h-274z"/>
        <path fill="#FFF" d="M1127.787 313.357h25v112h-25zm58 0h26v112h-26zm60 0h26v112h-26zm59 0h25v112h-25z"/>
    </g>

    <g	id="list-viewer">
        <path d="M205.917 1103.357H24.243c-4.687 0-9.026-1.766-12.326-5.086-3.48-3.502-5.13-7.946-5.13-13.333V646.174c0-6.41 3.04-10.69 4.93-12.596 3.257-3.287 7.582-5.22 12.284-5.22h319.76c9.967 0 18.03 7.965 18.03 17.815v361.23c0 9.793-8.05 17.762-17.787 17.762-2.377 0-4.767-.47-6.978-1.393L261.35 992.18l-38.11 99.107c-2.8 7.266-9.768 12.07-17.323 12.07zm-165.13-34h154.317l40.28-104.874c2.665-6.928 9.435-11.583 16.85-11.583 2.403 0 4.944.468 7.163 1.396l68.39 28.48v-320.42h-287v407z" fill="#ECDAD7"/>
        <path fill="#ECDAD7" d="M75.787 704.357h215v36h-215zm0 60h215v36h-215zm1 60h216v36h-216zm-2 59h215v36h-215zM202.136 1103.567c-.178 0-.35-.002-.523-.006-11.178-.25-17.125-7.214-18.964-13.65l32.986-9.424c-2.375-8.31-9.982-11.412-13.516-11.222 5.967-.315 33.788-9.67 67.986-27.184 43.573-22.316 56.725-36.98 58.116-40.75l32.528 10.905c-3.565 10.652-13.067 21.284-29.9 33.46-12.09 8.744-28.062 18.243-46.184 27.47-20.782 10.583-64.495 30.402-82.53 30.402z"/>
    </g>
    <g	id="list-list">
        <path d="M703.497 1102.357h-181.69c-4.69 0-9.31-1.378-12.61-4.7-3.478-3.505-5.41-7.562-5.41-12.95V645.91c0-6.41 3.323-11.057 5.21-12.962 3.258-3.288 7.863-5.59 12.568-5.59h319.783c9.97 0 17.44 8.7 17.44 18.552v361.26c0 9.795-7.754 17.765-17.492 17.765-2.373 0-4.615-.467-6.824-1.39l-75.612-31.6-38.077 98.728c-2.81 7.27-9.74 11.684-17.286 11.684zm-165.71-34h154.895l40.285-104.497c2.68-6.938 9.445-11.39 16.85-11.39 2.404 0 4.65.564 6.87 1.492l68.1 28.58V661.357h-287v407z" fill="#9DBFAA"/>
        <path fill="#9DBFAA" d="M572.787 703.357h215v36h-215zm0 60h215v36h-215zm1 60h216v36h-216zm-2 59h215v36h-215zm127.24 219.893c-.178 0 .17.02 0 0-14.417-1.75-16.962-6.13-18.802-12.567l32.99-9.425c-2.373-8.31-9.975-11.416-13.516-11.223 5.965-.315 33.787-9.67 67.99-27.186 43.574-22.32 56.73-36.986 58.12-40.754L858.34 1012c-3.564 10.654-13.066 21.287-29.9 33.463-12.094 8.746-28.064 18.245-46.188 27.473-20.786 10.584-70.726 33.48-83.226 29.312z"/>
    </g>
    <g fill="#FF9583" id="list-add">
        <path d="M1212.188 1103.357H1030.52c-8.554 0-17.733-6.952-17.733-19.01V645.62c0-9.85 7.73-17.262 17.485-17.262h319.745c9.93 0 17.77 7.412 17.77 17.262v361.215c0 9.793-7.94 17.763-17.658 17.763-2.377 0-4.717-.47-6.93-1.395l-75.607-31.59L1229.5 1091c-2.805 7.268-9.76 12.358-17.313 12.358zm-165.4-34h154.587l40.28-105.154c2.668-6.93 9.437-11.726 16.848-11.726 2.403 0 4.848.396 7.067 1.325l68.217 28.39V662.356h-287v407z"/>
        <path d="M1082.787 833.357h216v36h-216zm-2 59h215v36h-215zm127.62 210.638c-.178 0-.35-.002-.523-.006-11.178-.25-17.124-7.218-18.964-13.653l32.987-9.424c-2.373-8.31-9.99-11.437-13.516-11.22 5.97-.316 33.788-9.67 67.985-27.183 43.57-22.312 56.723-36.98 58.113-40.746l32.527 10.903c-3.564 10.653-13.065 21.284-29.9 33.46-12.09 8.744-28.06 18.243-46.18 27.47-20.78 10.58-64.493 30.398-82.528 30.398zm-6.62-290.695c0 .032-.025.057-.057.057h-23.887c-.03 0-.057-.025-.057-.056V687.416c0-.03.025-.056.057-.056h23.887c.03 0 .057.024.057.055V812.3z"/>
        <path d="M1201.107 816.357h-27.82l-.5-4.21V682.943l4.64.416h27.82l.54 3.722V816.29l-4.68.07zm-19.32-8h15v-117h-15v117z"/>
        <path d="M1251.787 762.3c0 .032-.025.057-.057.057h-124.887c-.03 0-.057-.025-.057-.056v-23.886c0-.03.025-.056.057-.056h124.887c.03 0 .057.025.057.056V762.3z"/>
        <path d="M1251.8 766.357h-129.206l.193-4.902v-27.82l3.945.722h129.206l-.15 3.416v27.82l-3.987.764zm-121.013-9h117v-15h-117v15z"/>
    </g>

    <g fill="#DFCA6A" id="heart-friend">
        <path d="M245.343 1340.91c-95.32-135.754-302.64 8.707-192.77 144.55 35.9 44.39 140.214 139.16 196.214 208.745v-.46c56-69.58 150.7-164.354 186.6-208.743 109.87-135.844-93.844-279.235-190.044-144.093z"/>
        <path d="M248.856 1708.834c-4.364 0-8.602-1.957-11.433-5.5-30.767-38.512-77.318-85.348-118.39-126.67-33.065-33.266-61.62-61.996-77.803-82.004-18.92-23.395-30.203-48.254-33.533-73.886-3.02-23.26.805-46.914 11.062-68.404 11.195-23.457 29.35-43.57 52.502-58.163 23.246-14.656 49.425-22.4 75.71-22.4 37.702 0 72.06 16.065 98.435 45.644 26.533-29.46 60.84-45.465 98.28-45.465 52.736 0 103.366 31.833 125.982 79.214 10.27 21.514 14.066 45.253 10.98 68.65-3.403 25.766-14.794 50.783-33.858 74.353-15.912 19.674-42.3 48.062-72.855 80.933-38.052 40.936-81.097 87.244-112.093 125.79-1.678 3.243-4.55 5.82-8.157 7.085-1.582.557-3.215.825-4.832.825zm-101.883-407.772c-41.98 0-83.847 26.282-101.81 63.912-17.038 35.695-10.357 75.217 18.816 111.288 15.24 18.843 44.656 48.44 75.802 79.777 36.755 36.977 77.845 78.32 108.82 114.863 30.5-36.717 69.254-78.41 103.906-115.688 30.187-32.476 56.258-60.522 71.535-79.412 29.476-36.445 36.303-76.22 19.222-112.005-8.65-18.122-22.746-33.71-40.763-45.08-18.12-11.435-38.458-17.48-58.814-17.48-23.792 0-58.1 8.764-86.43 48.563-2.746 3.857-7.186 6.556-11.918 6.556h-.05c-4.748 0-9.194-2.745-11.924-6.632-28-39.88-62.437-48.664-86.395-48.664z"/>
    </g>
    <g fill="#CC8475" id="heart-heart">
        <path d="M742.815 1341.14c-95.32-135.753-302.875 8.708-193.006 144.552 35.9 44.39 139.976 139.16 195.976 208.744v-.46c56-69.58 150.936-164.353 186.837-208.742 109.868-135.845-93.608-279.236-189.81-144.094z"/>
        <path d="M746.33 1709.065c-4.363 0-8.602-1.957-11.432-5.5-30.768-38.512-77.32-85.35-118.392-126.67-33.064-33.267-61.62-61.996-77.8-82.005-18.923-23.395-30.205-48.254-33.534-73.886-3.02-23.26.804-46.914 11.062-68.403 11.197-23.456 29.353-43.57 52.503-58.162 23.247-14.656 49.427-22.4 75.71-22.4 37.703 0 72.063 16.065 98.435 45.644 26.533-29.46 60.84-45.466 98.28-45.466 52.738 0 103.366 31.833 125.983 79.214 10.27 21.515 14.068 45.254 10.98 68.65-3.402 25.767-14.793 50.784-33.857 74.354-15.912 19.674-42.3 48.062-72.855 80.934-38.052 40.936-81.097 87.243-112.092 125.79-1.677 3.243-4.55 5.82-8.154 7.085-1.586.557-3.22.825-4.835.825zm-101.884-407.772c-41.98 0-83.846 26.282-101.808 63.912-17.04 35.695-10.357 75.217 18.815 111.288 15.24 18.843 44.66 48.44 75.804 79.776 36.754 36.977 77.844 78.32 108.82 114.863 30.5-36.717 69.254-78.41 103.906-115.688 30.188-32.476 56.258-60.52 71.536-79.412 29.474-36.445 36.3-76.22 19.22-112.005-8.65-18.122-22.745-33.71-40.762-45.08-18.12-11.435-38.46-17.48-58.817-17.48-23.79 0-58.1 8.648-86.43 48.447-2.744 3.856-7.185 6.44-11.916 6.44h-.048c-4.75 0-9.196-2.63-11.925-6.518-28.002-39.88-62.44-48.547-86.396-48.547z"/>
    </g>
    <g id="heart-add">
        <path d="M1250.954 1340.798c-95.32-135.753-302.445 8.708-192.577 144.552 35.9 44.388 140.41 139.16 196.41 208.743v-.458c56-69.58 150.504-164.354 186.406-208.743 109.87-135.845-94.038-279.237-190.24-144.094z" fill="#F4DCD9"/>
        <path d="M1254.47 1708.724c-4.365 0-8.603-1.956-11.435-5.5-30.767-38.513-77.318-85.35-118.39-126.67-33.065-33.268-61.62-61.996-77.803-82.005-18.922-23.397-30.204-48.256-33.533-73.888-3.023-23.26.803-46.913 11.06-68.403 11.197-23.458 29.353-43.57 52.503-58.165 23.247-14.655 49.427-22.4 75.71-22.4 37.703 0 72.062 16.064 98.437 45.644 26.533-29.463 60.842-45.47 98.28-45.47 52.737 0 103.366 31.835 125.982 79.215 10.27 21.516 14.068 45.254 10.98 68.65-3.4 25.768-14.793 50.785-33.856 74.355-15.912 19.675-42.3 48.063-72.854 80.935-38.053 40.937-81.098 87.243-112.094 125.79-1.678 3.243-4.55 5.82-8.156 7.085-1.584.555-3.217.824-4.833.824zm-101.886-407.772c-41.98 0-83.846 26.28-101.81 63.91-17.038 35.695-10.355 75.22 18.817 111.29 15.24 18.842 44.66 48.44 75.806 79.775 36.755 36.98 77.845 78.32 108.82 114.866 30.5-36.718 69.255-78.41 103.906-115.69 30.19-32.475 56.26-60.52 71.537-79.41 29.475-36.446 36.302-76.223 19.22-112.005-8.65-18.122-22.745-33.71-40.763-45.08-18.12-11.435-38.458-17.48-58.815-17.48-23.79 0-58.098 8.82-86.43 48.618-2.744 3.856-7.186 6.61-11.917 6.61h-.048c-4.748 0-9.195-2.8-11.925-6.687-28-39.883-62.437-48.72-86.396-48.72z" fill="#FF9583"/>
        <g fill="#FF9583">
            <path d="M1267.787 1562.275c0 .045-.037.082-.083.082h-34.834c-.046 0-.083-.037-.083-.082V1381.44c0-.046.037-.083.083-.083h34.834c.046 0 .083.037.083.082v180.834z"/>
            <path d="M1274.787 1563.96c0 4.086-3.312 7.397-7.396 7.397h-35.205c-4.085 0-7.396-3.312-7.396-7.396v-181.205c0-4.085 3.31-7.396 7.395-7.396h35.207c4.086 0 7.397 3.31 7.397 7.395v181.207zm-35-7.603h21v-166h-21v166z"/>
            <path d="M1339.787 1491.276c0 .045-.037.082-.082.082H1158.87c-.046 0-.083-.037-.083-.082v-34.837c0-.047.037-.084.082-.084h180.834c.045 0 .082.037.082.082v34.836z"/>
            <path d="M1347.787 1490.96c0 4.085-3.31 7.397-7.396 7.397h-181.207c-4.084 0-7.396-3.312-7.396-7.396v-35.206c0-4.084 3.31-7.396 7.396-7.396h181.21c4.083 0 7.395 3.312 7.395 7.396v35.208zm-181-6.603h167v-22h-167v22z"/>
        </g>
    </g>

    <g	id="edit-gray" fill="#A0A0A0">
        <path d="M104.404 2309.177c.236.254.633.264.882.023l365.21-353.242c.248-.24.26-.646.02-.9l-56.348-60.386c-.236-.254-.633-.263-.883-.023L48.08 2247.89c-.25.24-.26.646-.023.898l56.347 60.387z"/>
        <path d="M17.744 2335.184c-.11.328.07.515.4.416l86.088-25.78c.33-.1.405-.386.166-.635l-57.09-59.273c-.24-.25-.526-.186-.638.143l-28.926 85.13z"/>
        <path d="M17.98 2346.65c-3.643-.003-7.076-1.76-9.184-4.707-2.12-2.96-2.676-6.816-1.486-10.312l28.922-85.122c1.583-4.65 5.91-7.772 10.77-7.772 3.082 0 6.087 1.288 8.247 3.53l57.085 59.272c2.802 2.91 3.867 6.953 2.854 10.818-1.015 3.863-3.93 6.86-7.796 8.02l-86.088 25.783c-1.085.324-2.205.49-3.327.49zm33.505-76.51l-16.63 48.95 49.5-14.825-32.87-34.126z"/>
        <path fill="#FFF" d="M375.897 1913.947l75.118 77.888-12.172 11.74-75.118-77.89zM28.98 2325.395c-1.428.432-2.14-.348-1.584-1.733l17.825-44.367c.56-1.385 1.843-1.62 2.856-.525l27.707 29.94c1.014 1.096.674 2.345-.754 2.776l-46.048 13.91z"/>
    </g>
    <g id="edit-red">
        <path d="M601.878 2309.33c.236.255.633.265.882.024l365.21-353.243c.248-.24.26-.644.02-.896l-56.348-60.387c-.236-.254-.633-.263-.883-.023L545.55 2248.047c-.25.24-.26.645-.023.898l56.347 60.387z" fill="#CC8475"/>
        <path d="M602.33 2320.552c-3.217 0-6.32-1.35-8.515-3.705l-56.343-60.382c-4.307-4.62-4.12-11.946.414-16.337l365.21-353.248c2.185-2.11 5.06-3.274 8.095-3.274 3.22 0 6.324 1.35 8.518 3.705l56.345 60.385c4.31 4.604 4.13 11.938-.415 16.338L610.426 2317.28c-2.18 2.11-5.056 3.273-8.094 3.273zm-41.784-71.672l42.164 45.188 350.266-338.79-42.166-45.187-350.264 338.79z" fill="#CC8475"/>
        <g fill="#CC8475">
            <path d="M515.217 2335.337c-.11.33.07.516.4.417l86.087-25.78c.332-.1.406-.387.166-.635l-57.09-59.275c-.24-.25-.526-.186-.638.143l-28.925 85.127z"/>
            <path d="M515.454 2346.804c-3.643-.002-7.076-1.76-9.184-4.705-2.12-2.965-2.676-6.82-1.486-10.314l28.922-85.125c1.583-4.65 5.91-7.77 10.77-7.77 3.082 0 6.087 1.288 8.247 3.53l57.087 59.27c2.802 2.91 3.867 6.955 2.854 10.82-1.014 3.863-3.928 6.86-7.795 8.02l-86.09 25.783c-1.086.324-2.206.49-3.327.49zm33.505-76.51l-16.633 48.95 49.5-14.825-32.87-34.128z"/>
        </g>
        <path fill="#FFF" d="M873.383 1914.1l75.118 77.887-12.17 11.74-75.12-77.888zM526.455 2325.55c-1.43.43-2.142-.35-1.586-1.734l17.823-44.367c.557-1.387 1.84-1.623 2.854-.527l27.707 29.94c1.014 1.096.674 2.345-.754 2.776l-46.045 13.91z"/>
    </g>
    <g id="tag">
        <path d="M1269.995 1907.744c-.365-.34-.943-.32-1.283.044l-240.276 257.592c-.34.365-.32.943.045 1.283l181.91 169.68c.365.342.942.32 1.282-.045l240.277-257.592c.34-.365.32-.942-.045-1.282l-181.908-169.68z" fill="#A0A0A0"/>
        <path d="M1211.007 2352.474c-4.268 0-8.336-1.602-11.454-4.512l-181.91-169.68c-3.28-3.06-5.17-7.213-5.327-11.698-.156-4.484 1.442-8.76 4.5-12.04l240.276-257.594c3.164-3.39 7.642-5.338 12.282-5.338 4.268 0 8.336 1.604 11.456 4.512l181.908 169.68c3.28 3.06 5.173 7.216 5.33 11.7.153 4.484-1.444 8.76-4.504 12.04l-240.275 257.592c-3.165 3.392-7.64 5.338-12.284 5.338zm-160.735-187.21l159.998 149.243 219.84-235.684-159.998-149.243-219.84 235.683z" fill="#A0A0A0"/>
        <path d="M1453.02 1894.202c.003-.5-.402-.877-.9-.84l-181.885 13.693c-.5.04-.605.346-.238.687L1451.9 2076.17c.366.34.667.207.67-.29l.45-181.678z" fill="#A0A0A0"/>
        <path d="M1452.274 2092.357h-.003c-4.122 0-8.09-1.625-11.165-4.477l-181.902-168.453c-4.805-4.45-6.535-11.273-4.41-17.36 2.122-6.09 7.715-10.35 14.24-10.848l182.49-13.743.666-.006c4.48 0 8.683 1.747 11.842 4.915 3.16 3.166 4.894 7.38 4.88 11.86l-.453 181.728c-.027 9.008-7.288 16.383-16.184 16.383zm-145.402-172.126l129.897 120.276.323-130.08-130.222 9.806z" fill="#A0A0A0"/>
        <circle cx="1400.313" cy="1951.063" r="33.469" fill="#FFF"/>
    </g>

    <g	id="upload">
        <path d="M1240.205 2822.07c0 .986-.8 1.787-1.788 1.787h-66.153c-.988 0-1.79-.8-1.79-1.787v-272.355c0-.988.802-1.788 1.79-1.788h66.153c.987 0 1.788.8 1.788 1.788v272.355z" fill="#A0A0A0"/>
        <path d="M1238.915 2828.838h-66.153c-4.007 0-7.268-3.26-7.268-7.268v-272.354c0-4.007 3.26-7.268 7.268-7.268h66.153c4.007 0 7.267 3.26 7.267 7.268v272.354c0 4.008-3.26 7.268-7.267 7.268zm-62.463-10.957h58.77V2552.91h-58.77v264.974z" fill="#A0A0A0"/>
        <path d="M1205.715 2641.357h129.096c1.283 0 1.607-.22.724-1.145l-126.465-132.298c-.885-.927-2.34-.802-3.236.114l-129.68 132.68c-.895.916-.58 1.104.7 1.104l128.862-.455z" fill="#A0A0A0"/>
        <path d="M1334.815 2647.316l-257.96-.002c-2.69-.002-4.844-1.312-5.765-3.505-.918-2.186-.355-4.624 1.504-6.524l129.677-132.617c1.38-1.41 3.22-2.188 5.185-2.188 1.96 0 3.862.814 5.22 2.236l126.463 132.545c1.83 1.916 2.364 4.366 1.43 6.552-.935 2.19-3.086 3.5-5.752 3.5zm-248.353-9.964l238.993.004-118.03-123.706-120.963 123.702z" fill="#A0A0A0"/>
        <path d="M1384.36 2976.857h-353.853c-9.606 0-18.22-8.788-18.22-18.59v-224.19c0-9.55 8.45-16.22 18.22-16.22h61.78v31h-49v197h326v-197h-53v-31h68.072c9.655 0 15.926 6.67 15.926 16.22v224.19c0 9.802-6.433 18.59-15.928 18.59z" fill="#A0A0A0" stroke="#A0A0A0" stroke-width="3" stroke-linecap="round" stroke-linejoin="round" stroke-miterlimit="10"/>
    </g>

    <g fill="#ECE6CD" id="vote-down">
        <path d="M238.8 3502.02c0 1.083-.878 1.96-1.962 1.96H125.444c-1.084 0-1.963-.877-1.963-1.96v-367.23c0-1.083.88-1.962 1.965-1.962H236.84c1.083 0 1.96.88 1.96 1.96v367.23z"/>
        <path d="M237.323 3508.825H125.928c-4.02 0-7.292-3.27-7.292-7.29v-367.23c0-4.02 3.27-7.292 7.292-7.292h111.395c4.02 0 7.292 3.27 7.292 7.29v367.23c0 4.02-3.27 7.292-7.292 7.292zm-108.028-10.66h104.66v-360.492h-104.66v360.492z"/>
        <path d="M181.14 3427.425c-.874.244-2.302.242-3.173-.008L9.625 3379.33c-.872-.25-1.13.134-.574.85l170.15 219.233c.556.715 1.47.72 2.035.01l174.44-220.092c.564-.707.31-1.09-.56-.842l-173.975 48.938z"/>
        <path d="M180.22 3602.013c-1.024 0-1.99-.488-2.65-1.338L7.423 3381.442c-1.025-1.32-.746-2.4-.487-2.926.54-1.1 1.777-1.59 3.255-1.168l168.344 48.088c.186.053.556.11 1.037.11.47 0 .83-.056 1.01-.106l173.976-48.938c1.48-.418 2.716.076 3.25 1.18.255.53.528 1.613-.515 2.93l-174.44 220.09c-.66.834-1.62 1.31-2.63 1.31zM13.53 3382.59l166.697 214.786 170.905-215.63-169.435 47.66c-.762.216-1.577.26-2.128.26-.564 0-1.395-.046-2.17-.267l-163.87-46.81z"/>
    </g>
    <g fill="#DFCA6A" id="share">
        <path d="M787.947 3246.938c-411.393 18.58-240.453 323.322-240.453 323.322s7.774-239.716 239.745-189.444l.706-133.878"/>
        <path d="M547.492 3578.442c-2.91 0-5.663-1.556-7.135-4.178-.712-1.27-17.58-31.616-28.107-74.124-14.09-56.9-9.696-108.286 12.708-148.604 38.172-68.685 126.53-106.627 262.62-112.773 2.227-.11 4.424.72 6.04 2.273 1.617 1.554 2.524 3.703 2.513 5.945l-.705 133.88c-.013 2.467-1.14 4.796-3.063 6.34-1.923 1.543-4.443 2.136-6.853 1.614-20.65-4.476-40.315-6.744-58.44-6.744-37.616 0-69.93 9.73-96.05 28.923-20.964 15.404-38.15 36.985-51.083 64.144-22.384 47.01-24.244 94.916-24.26 95.395-.125 3.67-2.678 6.81-6.245 7.68-.646.155-1.296.23-1.938.23zm232.225-322.893c-125.134 7.01-206.01 41.96-240.453 103.936-35.4 63.702-12.644 141.44 3.434 180.99 3.28-19.175 9.702-45.434 22.235-71.906 22.217-46.928 68.38-102.867 162.133-102.867 16.358 0 33.823 1.722 52.042 5.125l.61-115.28z"/>
        <path d="M763.614 3476.73l-.98-317.168 207.553 144.7"/>
        <path d="M763.612 3485.71c-1.286 0-2.58-.276-3.79-.84-3.155-1.47-5.177-4.632-5.188-8.112l-.98-317.167c-.01-3.35 1.846-6.427 4.812-7.98 2.97-1.557 6.554-1.328 9.304.59l207.552 144.7c2.296 1.6 3.715 4.18 3.836 6.974.122 2.798-1.068 5.49-3.218 7.284l-206.57 172.467c-1.647 1.374-3.692 2.085-5.758 2.085zm8.056-308.9l.867 280.773 182.87-152.678-183.737-128.096z"/>
    </g>
    <g fill="#CCC" id="send-left">
        <path d="M1479.02 3318.028c1.21 0 2.19 1.083 2.19 2.418v89.48c0 1.337-.98 2.42-2.19 2.42h-333.326c-1.21 0-2.188-1.083-2.188-2.42v-89.478c0-1.337.98-2.42 2.188-2.42h333.327z"/>
        <path d="M1487.306 3319.772v89.48c0 5.42-3.99 9.83-8.895 9.83h-333.324c-4.905 0-8.895-4.408-8.895-9.83v-89.478c0-5.422 3.99-9.83 8.896-9.83h333.326c4.906 0 8.896 4.41 8.896 9.828zm-13.41 84.49v-79.497h-324.294v79.496h324.294z"/>
        <path d="M1182.787 3364.633v-124.72c0-1.236-.525-1.55-1.66-.695l-162.046 122.174c-1.13.855-1.043 2.26.08 3.127l162.35 125.28c1.12.862 1.593.56 1.593-.68l-.315-124.488z"/>
        <path d="M1189.563 3239.91l-.004 249.21c-.004 2.6-1.608 4.682-4.29 5.57-2.673.887-5.656.344-7.984-1.452l-162.305-125.28c-1.726-1.33-2.676-3.108-2.676-5.006 0-1.895.998-3.73 2.737-5.042l162.22-122.175c2.346-1.768 5.344-2.285 8.02-1.383 2.68.905 4.28 2.982 4.282 5.558zm-12.195 239.93l.004-230.888-151.4 114.028 151.396 116.86z"/>
    </g>

    <g fill="#FFF" id="unknown">
        <path d="M313.976 2517.304c.466-.674 1.398-.844 2.072-.377l45.298 31.345c.674.466.844 1.398.377 2.072L232.68 2736.838c-.466.674-1.398.845-2.072.378l-45.298-31.344c-.674-.466-.844-1.398-.378-2.07l129.044-186.498z"/>
        <path d="M231.452 2742.04c-1.236 0-2.425-.37-3.44-1.072l-45.298-31.344c-1.328-.92-2.22-2.3-2.508-3.893-.29-1.59.056-3.2.976-4.526l129.043-186.495c1.13-1.633 2.99-2.608 4.98-2.608 1.235 0 2.425.373 3.44 1.075l45.298 31.345c2.743 1.898 3.432 5.675 1.534 8.42L236.43 2739.434c-1.128 1.63-2.99 2.606-4.978 2.606zm-41.02-38.17l40.244 27.846 125.548-181.44-40.245-27.85-125.55 181.444z"/>
        <path d="M294.313 2598.434l3.19 2.207 85.26 58.89c.877.607 1.46.24 1.293-.812l-23.784-150.7c-.166-1.054-1.16-1.75-2.206-1.546l-151.632 29.363c-1.047.203-1.187.866-.31 1.474l88.19 61.126z"/>
        <path d="M383.515 2663.974c-1.078 0-2.125-.346-3.113-1.03l-88.455-61.097-88.188-61.13c-1.83-1.268-2.68-3.194-2.266-5.155.413-1.96 1.964-3.383 4.15-3.806l151.632-29.364c.38-.072.768-.11 1.154-.11 2.98 0 5.48 2.14 5.945 5.09l23.783 150.696c.258 1.638-.13 3.156-1.09 4.28-.884 1.034-2.18 1.626-3.553 1.626zM215 2538.404l84.863 58.82 78.884 54.483-22.207-140.713-141.54 27.41zM80.954 2962.26c-.466.673-1.398.843-2.072.376l-45.298-31.344c-.674-.466-.844-1.398-.377-2.07l129.044-186.497c.468-.674 1.4-.845 2.074-.378l45.298 31.345c.675.466.845 1.398.38 2.073L80.952 2962.26z"/>
        <path d="M79.726 2967.462c-1.236 0-2.425-.372-3.44-1.074l-45.298-31.344c-1.328-.92-2.218-2.3-2.508-3.892-.29-1.593.056-3.2.976-4.528L158.5 2740.13c1.128-1.633 2.99-2.608 4.98-2.608 1.235 0 2.424.372 3.44 1.073l45.297 31.346c2.743 1.9 3.432 5.676 1.534 8.42L84.708 2964.855c-1.13 1.632-2.99 2.608-4.98 2.608zm-41.02-38.172l40.245 27.846 125.55-181.44-40.245-27.85L38.707 2929.29z"/>
        <g>
            <path d="M100.618 2881.13l-3.19-2.207-85.26-58.888c-.878-.606-1.46-.24-1.294.813l23.783 150.697c.166 1.055 1.16 1.75 2.206 1.547l151.63-29.36c1.048-.204 1.188-.866.31-1.474l-88.185-61.128z"/>
            <path d="M36.5 2977.28c-2.98 0-5.48-2.14-5.945-5.09L6.772 2821.497c-.258-1.637.13-3.155 1.09-4.28.884-1.033 2.18-1.626 3.554-1.626 1.078 0 2.125.348 3.113 1.03l88.453 61.1 88.187 61.127c1.83 1.27 2.677 3.195 2.265 5.155-.413 1.962-1.964 3.385-4.15 3.808l-151.63 29.363c-.382.073-.77.11-1.156.11zm-20.316-149.425l22.208 140.713 141.54-27.408-84.863-58.82-78.887-54.485z"/>
        </g>
    </g>
</defs>
</svg>
