<?xml version="1.0" encoding="utf-8"?>
<svg viewBox="1.885 1.653 4.896 5.36" width="4.896" height="5.36" xmlns="http://www.w3.org/2000/svg">
  <defs>
    <style type="text/css">
   
    .fil1 {fill:none}
    .fil0 {fill:#000000;fill-rule:nonzero}
   
  </style>
  </defs>
  <g>
    <path class="fil0" d="M3.62913 5.25996l0.198563 0.062878c-0.0304921,0.110866 -0.0810787,0.19313 -0.151996,0.247028 -0.0706772,0.0536575 -0.160744,0.0806063 -0.269717,0.0806063 -0.13474,0 -0.245602,-0.0460945 -0.332358,-0.138051 -0.086752,-0.092189 -0.130248,-0.218185 -0.130248,-0.377744 0,-0.16902 0.0437323,-0.300213 0.130957,-0.393823 0.0872283,-0.093374 0.201874,-0.140177 0.344177,-0.140177 0.124102,0 0.225039,0.0366417 0.302575,0.110157 0.0463346,0.0432598 0.0808465,0.105665 0.104012,0.18698l-0.203055 0.0484606c-0.0118228,-0.0527126 -0.036878,-0.0943189 -0.0751732,-0.124811 -0.0380591,-0.0304961 -0.0843898,-0.045626 -0.13876,-0.045626 -0.0751693,0 -0.136394,0.0269488 -0.183201,0.0810827 -0.0467992,0.0538976 -0.0702008,0.141358 -0.0702008,0.26239 0,0.128358 0.0229291,0.219839 0.0692559,0.274209 0.0460984,0.0546063 0.106138,0.0817913 0.17989,0.0817913 0.0546063,0 0.101413,-0.0172559 0.140654,-0.0520079 0.0392402,-0.0345118 0.0673701,-0.0891181 0.084626,-0.163343zm0.322665 0.0430236l0.199512 -0.019622c0.0118189,0.0671339 0.0361654,0.116303 0.0730433,0.147744 0.0366417,0.0312008 0.0860433,0.0470394 0.148453,0.0470394 0.0659488,0 0.115827,-0.0139449 0.149157,-0.0420748 0.0335669,-0.0278937 0.0503504,-0.0605157 0.0503504,-0.0978661 0,-0.0241102 -0.00709055,-0.0444409 -0.0212756,-0.0612244 -0.0139449,-0.0170197 -0.0385276,-0.0316732 -0.073752,-0.0439685 -0.023874,-0.00850787 -0.0787165,-0.0231654 -0.164051,-0.0444409 -0.109921,-0.0271811 -0.186984,-0.060752 -0.231185,-0.100465 -0.0624094,-0.0557874 -0.0936102,-0.123866 -0.0936102,-0.204236 0,-0.0517677 0.0146535,-0.0999921 0.0439685,-0.145142 0.029311,-0.0449134 0.071622,-0.079189 0.126701,-0.102831 0.055315,-0.0234016 0.12174,-0.0352205 0.199748,-0.0352205 0.12765,0 0.223386,0.0278937 0.287921,0.0836811 0.0642953,0.0560236 0.0980984,0.130484 0.101409,0.223858l-0.204949 0.00898425c-0.00874409,-0.0522441 -0.0276575,-0.0898268 -0.0564961,-0.11252 -0.0288386,-0.0229291 -0.0720984,-0.0342795 -0.129776,-0.0342795 -0.0595709,0 -0.106374,0.0120591 -0.139941,0.0366417 -0.021748,0.0156024 -0.032622,0.0366417 -0.032622,0.062878 0,0.0241142 0.0101654,0.0446772 0.0304921,0.0616969 0.0257677,0.021748 0.0886457,0.0444409 0.188402,0.0678465 0.0997559,0.0236378 0.173508,0.0479843 0.22126,0.0730433 0.047748,0.0252913 0.0850984,0.0595669 0.112283,0.103299 0.0269488,0.0437323 0.0404213,0.0976299 0.0404213,0.161689 0,0.0581496 -0.0160748,0.112756 -0.0484606,0.163343 -0.0323819,0.0508228 -0.0780079,0.0886457 -0.137102,0.113232 -0.0590984,0.0248189 -0.13285,0.0371102 -0.221024,0.0371102 -0.128358,0 -0.226929,-0.0295472 -0.29572,-0.0888819 -0.0687874,-0.0593307 -0.109917,-0.14585 -0.123157,-0.259315zm0.94602 0l0.199512 -0.019622c0.0118189,0.0671339 0.0361654,0.116303 0.0730433,0.147744 0.0366417,0.0312008 0.0860433,0.0470394 0.148453,0.0470394 0.0659488,0 0.115827,-0.0139449 0.149157,-0.0420748 0.0335669,-0.0278937 0.0503504,-0.0605157 0.0503504,-0.0978661 0,-0.0241102 -0.00709055,-0.0444409 -0.0212756,-0.0612244 -0.0139449,-0.0170197 -0.0385276,-0.0316732 -0.073752,-0.0439685 -0.023874,-0.00850787 -0.0787165,-0.0231654 -0.164051,-0.0444409 -0.109921,-0.0271811 -0.186984,-0.060752 -0.231185,-0.100465 -0.0624094,-0.0557874 -0.0936102,-0.123866 -0.0936102,-0.204236 0,-0.0517677 0.0146535,-0.0999921 0.0439685,-0.145142 0.029311,-0.0449134 0.071622,-0.079189 0.126701,-0.102831 0.055315,-0.0234016 0.12174,-0.0352205 0.199748,-0.0352205 0.12765,0 0.223386,0.0278937 0.287917,0.0836811 0.0642953,0.0560236 0.0980984,0.130484 0.101409,0.223858l-0.204945 0.00898425c-0.00874409,-0.0522441 -0.0276575,-0.0898268 -0.0564961,-0.11252 -0.0288386,-0.0229291 -0.0720984,-0.0342795 -0.129776,-0.0342795 -0.0595709,0 -0.106374,0.0120591 -0.139941,0.0366417 -0.021748,0.0156024 -0.032622,0.0366417 -0.032622,0.062878 0,0.0241142 0.0101654,0.0446772 0.0304921,0.0616969 0.0257677,0.021748 0.0886457,0.0444409 0.188402,0.0678465 0.0997559,0.0236378 0.173508,0.0479843 0.221256,0.0730433 0.047748,0.0252913 0.0850984,0.0595669 0.112283,0.103299 0.0269488,0.0437323 0.0404213,0.0976299 0.0404213,0.161689 0,0.0581496 -0.0160748,0.112756 -0.0484606,0.163343 -0.0323819,0.0508228 -0.0780079,0.0886457 -0.137098,0.113232 -0.0590984,0.0248189 -0.13285,0.0371102 -0.221024,0.0371102 -0.128358,0 -0.226929,-0.0295472 -0.29572,-0.0888819 -0.0687874,-0.0593307 -0.109917,-0.14585 -0.123157,-0.259315z" style="fill: rgb(87, 139, 98);"/>
  </g>
  <path class="fil0" d="M 3.12 3.412 C 3.076 3.412 3.04 3.489 3.04 3.533 C 3.04 3.577 3.056 3.633 3.1 3.633 L 5.547 3.644 C 5.591 3.644 5.627 3.577 5.627 3.533 C 5.627 3.489 5.591 3.422 5.547 3.422 L 3.12 3.412 Z" style="fill: rgb(87, 139, 98);"/>
  <path class="fil0" d="M 3.12 2.981 C 3.076 2.981 3.04 3.047 3.04 3.092 C 3.04 3.136 3.076 3.203 3.12 3.203 L 5.557 3.192 C 5.601 3.192 5.627 3.136 5.627 3.092 C 5.627 3.047 5.591 2.981 5.547 2.981 L 3.12 2.981 Z" style="fill: rgb(87, 139, 98);"/>
  <path class="fil0" d="M 3.151 2.56 C 3.107 2.56 3.07 2.626 3.07 2.67 C 3.07 2.714 3.106 2.771 3.15 2.771 L 4.813 2.76 C 4.857 2.76 4.884 2.694 4.884 2.65 C 4.884 2.606 4.848 2.55 4.804 2.55 L 3.151 2.56 Z" style="fill: rgb(87, 139, 98);"/>
  <path class="fil0" d="M 2.065 6.067 L 6.59 6.067 L 6.58 4.195 L 2.076 4.195 L 2.065 6.067 Z M 6.701 6.268 L 1.965 6.268 C 1.921 6.268 1.885 6.232 1.885 6.188 L 1.885 4.064 C 1.885 4.02 1.921 3.984 1.965 3.984 L 6.701 3.984 C 6.746 3.984 6.781 4.02 6.781 4.064 L 6.781 6.188 C 6.781 6.232 6.746 6.268 6.701 6.268 Z" style="fill: rgb(87, 139, 98);"/>
  <path class="fil0" d="M 5.481 1.733 C 5.481 1.689 5.446 1.653 5.401 1.653 C 5.357 1.653 5.311 1.689 5.311 1.733 L 5.311 2.123 C 5.311 2.252 5.374 2.379 5.459 2.464 C 5.544 2.549 5.652 2.602 5.781 2.602 L 6.17 2.602 C 6.214 2.602 6.26 2.556 6.26 2.512 C 6.26 2.467 6.224 2.432 6.18 2.432 L 5.791 2.432 C 5.706 2.432 5.628 2.397 5.572 2.341 C 5.516 2.285 5.481 2.207 5.481 2.123 L 5.481 1.733 Z" style="fill: rgb(87, 139, 98);"/>
  <path class="fil0" d="M 2.407 4.064 C 2.407 4.108 2.443 4.144 2.487 4.144 C 2.531 4.144 2.638 4.128 2.638 4.084 L 2.618 1.864 L 5.378 1.844 L 6.1 2.545 L 6.1 4.064 C 6.1 4.108 6.136 4.144 6.18 4.144 C 6.224 4.144 6.291 4.098 6.291 4.054 L 6.28 2.502 C 6.28 2.481 6.283 2.461 6.267 2.445 L 5.458 1.677 C 5.444 1.662 5.424 1.653 5.401 1.653 L 2.487 1.653 C 2.443 1.653 2.407 1.689 2.407 1.733 L 2.407 4.064 Z M 6.26 6.188 C 6.26 6.144 6.224 6.108 6.18 6.108 C 6.136 6.108 6.069 6.164 6.069 6.208 L 6.07 6.812 L 2.618 6.802 L 2.598 6.239 C 2.598 6.195 2.531 6.108 2.487 6.108 C 2.443 6.108 2.407 6.144 2.407 6.188 L 2.407 6.933 C 2.407 6.978 2.443 7.013 2.487 7.013 L 6.18 7.013 C 6.224 7.013 6.26 6.978 6.26 6.933 L 6.26 6.188 Z" style="fill: rgb(87, 139, 98);"/>
</svg>