<svg xmlns:xlink="http://www.w3.org/1999/xlink" height='100px'  width='100px' fill="#000000" xmlns="http://www.w3.org/2000/svg" xml:space="preserve" style="shape-rendering:geometricPrecision;text-rendering:geometricPrecision;image-rendering:optimizeQuality;" viewBox="0 0 8.66666 8.66666" x="0px" y="0px" fill-rule="evenodd" clip-rule="evenodd"><defs><style type="text/css">
   
    .fil1 {fill:none}
    .fil0 {fill:#000000;fill-rule:nonzero}
   
  </style></defs><g><path class="fil0" d="M3.62913 5.25996l0.198563 0.062878c-0.0304921,0.110866 -0.0810787,0.19313 -0.151996,0.247028 -0.0706772,0.0536575 -0.160744,0.0806063 -0.269717,0.0806063 -0.13474,0 -0.245602,-0.0460945 -0.332358,-0.138051 -0.086752,-0.092189 -0.130248,-0.218185 -0.130248,-0.377744 0,-0.16902 0.0437323,-0.300213 0.130957,-0.393823 0.0872283,-0.093374 0.201874,-0.140177 0.344177,-0.140177 0.124102,0 0.225039,0.0366417 0.302575,0.110157 0.0463346,0.0432598 0.0808465,0.105665 0.104012,0.18698l-0.203055 0.0484606c-0.0118228,-0.0527126 -0.036878,-0.0943189 -0.0751732,-0.124811 -0.0380591,-0.0304961 -0.0843898,-0.045626 -0.13876,-0.045626 -0.0751693,0 -0.136394,0.0269488 -0.183201,0.0810827 -0.0467992,0.0538976 -0.0702008,0.141358 -0.0702008,0.26239 0,0.128358 0.0229291,0.219839 0.0692559,0.274209 0.0460984,0.0546063 0.106138,0.0817913 0.17989,0.0817913 0.0546063,0 0.101413,-0.0172559 0.140654,-0.0520079 0.0392402,-0.0345118 0.0673701,-0.0891181 0.084626,-0.163343zm0.322665 0.0430236l0.199512 -0.019622c0.0118189,0.0671339 0.0361654,0.116303 0.0730433,0.147744 0.0366417,0.0312008 0.0860433,0.0470394 0.148453,0.0470394 0.0659488,0 0.115827,-0.0139449 0.149157,-0.0420748 0.0335669,-0.0278937 0.0503504,-0.0605157 0.0503504,-0.0978661 0,-0.0241102 -0.00709055,-0.0444409 -0.0212756,-0.0612244 -0.0139449,-0.0170197 -0.0385276,-0.0316732 -0.073752,-0.0439685 -0.023874,-0.00850787 -0.0787165,-0.0231654 -0.164051,-0.0444409 -0.109921,-0.0271811 -0.186984,-0.060752 -0.231185,-0.100465 -0.0624094,-0.0557874 -0.0936102,-0.123866 -0.0936102,-0.204236 0,-0.0517677 0.0146535,-0.0999921 0.0439685,-0.145142 0.029311,-0.0449134 0.071622,-0.079189 0.126701,-0.102831 0.055315,-0.0234016 0.12174,-0.0352205 0.199748,-0.0352205 0.12765,0 0.223386,0.0278937 0.287921,0.0836811 0.0642953,0.0560236 0.0980984,0.130484 0.101409,0.223858l-0.204949 0.00898425c-0.00874409,-0.0522441 -0.0276575,-0.0898268 -0.0564961,-0.11252 -0.0288386,-0.0229291 -0.0720984,-0.0342795 -0.129776,-0.0342795 -0.0595709,0 -0.106374,0.0120591 -0.139941,0.0366417 -0.021748,0.0156024 -0.032622,0.0366417 -0.032622,0.062878 0,0.0241142 0.0101654,0.0446772 0.0304921,0.0616969 0.0257677,0.021748 0.0886457,0.0444409 0.188402,0.0678465 0.0997559,0.0236378 0.173508,0.0479843 0.22126,0.0730433 0.047748,0.0252913 0.0850984,0.0595669 0.112283,0.103299 0.0269488,0.0437323 0.0404213,0.0976299 0.0404213,0.161689 0,0.0581496 -0.0160748,0.112756 -0.0484606,0.163343 -0.0323819,0.0508228 -0.0780079,0.0886457 -0.137102,0.113232 -0.0590984,0.0248189 -0.13285,0.0371102 -0.221024,0.0371102 -0.128358,0 -0.226929,-0.0295472 -0.29572,-0.0888819 -0.0687874,-0.0593307 -0.109917,-0.14585 -0.123157,-0.259315zm0.94602 0l0.199512 -0.019622c0.0118189,0.0671339 0.0361654,0.116303 0.0730433,0.147744 0.0366417,0.0312008 0.0860433,0.0470394 0.148453,0.0470394 0.0659488,0 0.115827,-0.0139449 0.149157,-0.0420748 0.0335669,-0.0278937 0.0503504,-0.0605157 0.0503504,-0.0978661 0,-0.0241102 -0.00709055,-0.0444409 -0.0212756,-0.0612244 -0.0139449,-0.0170197 -0.0385276,-0.0316732 -0.073752,-0.0439685 -0.023874,-0.00850787 -0.0787165,-0.0231654 -0.164051,-0.0444409 -0.109921,-0.0271811 -0.186984,-0.060752 -0.231185,-0.100465 -0.0624094,-0.0557874 -0.0936102,-0.123866 -0.0936102,-0.204236 0,-0.0517677 0.0146535,-0.0999921 0.0439685,-0.145142 0.029311,-0.0449134 0.071622,-0.079189 0.126701,-0.102831 0.055315,-0.0234016 0.12174,-0.0352205 0.199748,-0.0352205 0.12765,0 0.223386,0.0278937 0.287917,0.0836811 0.0642953,0.0560236 0.0980984,0.130484 0.101409,0.223858l-0.204945 0.00898425c-0.00874409,-0.0522441 -0.0276575,-0.0898268 -0.0564961,-0.11252 -0.0288386,-0.0229291 -0.0720984,-0.0342795 -0.129776,-0.0342795 -0.0595709,0 -0.106374,0.0120591 -0.139941,0.0366417 -0.021748,0.0156024 -0.032622,0.0366417 -0.032622,0.062878 0,0.0241142 0.0101654,0.0446772 0.0304921,0.0616969 0.0257677,0.021748 0.0886457,0.0444409 0.188402,0.0678465 0.0997559,0.0236378 0.173508,0.0479843 0.221256,0.0730433 0.047748,0.0252913 0.0850984,0.0595669 0.112283,0.103299 0.0269488,0.0437323 0.0404213,0.0976299 0.0404213,0.161689 0,0.0581496 -0.0160748,0.112756 -0.0484606,0.163343 -0.0323819,0.0508228 -0.0780079,0.0886457 -0.137098,0.113232 -0.0590984,0.0248189 -0.13285,0.0371102 -0.221024,0.0371102 -0.128358,0 -0.226929,-0.0295472 -0.29572,-0.0888819 -0.0687874,-0.0593307 -0.109917,-0.14585 -0.123157,-0.259315z"></path></g><path class="fil0" d="M2.40683 4.06374c0,0.0441811 0.0358189,0.08 0.08,0.08 0.0441811,0 0.08,-0.0358189 0.08,-0.08l0 -2.25041 2.80151 0 0.731484 0.731484 0 1.51893c0,0.0441811 0.0358189,0.08 0.08,0.08 0.0441811,0 0.08,-0.0358189 0.08,-0.08l0 -1.55205 -3.93701e-006 0c0,-0.0204724 -0.00780709,-0.0409488 -0.0234291,-0.0565669l-3.93701e-006 3.93701e-006 -0.77802 -0.77802c-0.0145039,-0.0146772 -0.0346378,-0.0237756 -0.0569016,-0.0237756l-2.91464 0c-0.0441811,0 -0.08,0.0358189 -0.08,0.08l0 2.33041zm3.853 2.12438c0,-0.0441811 -0.0358189,-0.08 -0.08,-0.08 -0.0441811,0 -0.08,0.0358189 -0.08,0.08l0 0.665213 -3.533 0 0 -0.665213c0,-0.0441811 -0.0358189,-0.08 -0.08,-0.08 -0.0441811,0 -0.08,0.0358189 -0.08,0.08l0 0.745213c0,0.0441811 0.0358189,0.08 0.08,0.08l3.693 0c0.0441811,0 0.08,-0.0358189 0.08,-0.08l0 -0.745213z"></path><path class="fil0" d="M5.48147 1.73333c0,-0.0441811 -0.0358189,-0.08 -0.08,-0.08 -0.0441811,0 -0.08,0.0358189 -0.08,0.08l0 0.389177c0,0.129106 0.0527638,0.246421 0.137756,0.331417 0.0849961,0.0849921 0.202311,0.137756 0.331417,0.137756l0.389177 0c0.0441811,0 0.08,-0.0358189 0.08,-0.08 0,-0.0441811 -0.0358189,-0.08 -0.08,-0.08l-0.389177 0c-0.084937,0 -0.162217,-0.034811 -0.218291,-0.0908819 -0.0560709,-0.0560748 -0.0908819,-0.133354 -0.0908819,-0.218291l0 -0.389177z"></path><path class="fil0" d="M2.04518 6.10811l4.5763 0 0 -1.96438 -4.5763 0 0 1.96438zm4.6563 0.16l-4.7363 0c-0.0441811,0 -0.08,-0.0358189 -0.08,-0.08l0 -2.12438c0,-0.0441811 0.0358189,-0.08 0.08,-0.08l4.7363 0c0.0441811,0 0.08,0.0358189 0.08,0.08l0 2.12438c0,0.0441811 -0.0358189,0.08 -0.08,0.08z"></path><path class="fil0" d="M3.11986 2.5703c-0.0441811,0 -0.08,0.0358189 -0.08,0.08 0,0.0441811 0.0358189,0.08 0.08,0.08l1.72368 0c0.0441811,0 0.08,-0.0358189 0.08,-0.08 0,-0.0441811 -0.0358189,-0.08 -0.08,-0.08l-1.72368 0z"></path><path class="fil0" d="M3.11986 3.01156c-0.0441811,0 -0.08,0.0358189 -0.08,0.08 0,0.0441811 0.0358189,0.08 0.08,0.08l2.42694 0c0.0441811,0 0.08,-0.0358189 0.08,-0.08 0,-0.0441811 -0.0358189,-0.08 -0.08,-0.08l-2.42694 0z"></path><path class="fil0" d="M3.11986 3.45282c-0.0441811,0 -0.08,0.0358189 -0.08,0.08 0,0.0441811 0.0358189,0.08 0.08,0.08l2.42694 0c0.0441811,0 0.08,-0.0358189 0.08,-0.08 0,-0.0441811 -0.0358189,-0.08 -0.08,-0.08l-2.42694 0z"></path><rect class="fil1" width="8.66666" height="8.66666"></rect></svg>